<svg data-v-423bf9ae="" xmlns="http://www.w3.org/2000/svg" viewBox="0 0 187.36533366790826 60" class="font"><!----><!----><defs data-v-423bf9ae=""><linearGradient data-v-423bf9ae="" gradientTransform="rotate(25)" id="13c76cf3-f01f-46f1-bedf-5cb501ff07c5" x1="0%" y1="0%" x2="100%" y2="0%"><stop data-v-423bf9ae="" offset="0%" style="stop-color: rgb(81, 164, 251); stop-opacity: 1;"></stop><stop data-v-423bf9ae="" offset="100%" style="stop-color: rgb(81, 164, 251); stop-opacity: 1;"></stop></linearGradient></defs><g data-v-423bf9ae="" id="55696c5d-afea-4714-9c3e-c393fa6552fa" fill="url(#13c76cf3-f01f-46f1-bedf-5cb501ff07c5)" transform="matrix(5.881976885347347,0,0,5.881976885347347,-1.9166814919729944,-20.347804043443155)"><path d="M3.56 3.47L3.56 3.47L3.56 3.47Q3.08 3.40 2.55 3.79L2.55 3.79L2.55 3.79Q2.02 4.18 1.35 5.02L1.35 5.02L1.35 5.02Q0.69 5.86 0.43 6.93L0.43 6.93L0.43 6.93Q0.16 8.00 0.59 9.61L0.59 9.61L0.59 9.61Q1.01 11.22 2.23 12.29L2.23 12.29L2.23 12.29Q3.45 13.35 4.35 11.68L4.35 11.68L4.93 12.91L4.93 12.91Q5.30 13.65 5.68 13.66L5.68 13.66L6.80 12.39L6.64 12.06L6.64 12.06Q6.19 12.84 5.87 12.37L5.87 12.37L5.08 10.68L5.08 10.68Q6.36 8.35 6.17 7.29L6.17 7.29L6.17 7.29Q5.97 6.23 5.53 5.35L5.53 5.35L5.53 5.35Q5.09 4.48 4.57 4.01L4.57 4.01L4.57 4.01Q4.05 3.53 3.56 3.47ZM2.32 4.59L2.32 4.59L2.32 4.59Q2.92 4.18 3.49 4.54L3.49 4.54L3.49 4.54Q4.07 4.89 4.56 5.95L4.56 5.95L4.56 5.95Q5.05 7.01 5.17 8.08L5.17 8.08L5.17 8.08Q5.29 9.14 4.94 10.34L4.94 10.34L4.94 10.34Q4.17 8.15 2.14 10.53L2.14 10.53L2.14 10.53Q1.61 9.78 1.37 8.68L1.37 8.68L1.37 8.68Q1.13 7.58 1.42 6.29L1.42 6.29L1.42 6.29Q1.72 5.00 2.32 4.59ZM2.41 10.82L2.41 10.82Q3.23 9.91 3.52 10.23L3.52 10.23L3.52 10.23Q3.82 10.55 4.18 11.33L4.18 11.33L4.18 11.33Q3.25 12.05 2.41 10.82L2.41 10.82ZM9.63 6.45L9.63 6.45Q8.48 7.21 8.01 7.77L8.01 7.77L8.01 7.77Q7.53 8.33 7.34 8.89L7.34 8.89L7.34 8.89Q7.15 9.46 7.28 10.32L7.28 10.32L7.28 10.32Q7.40 11.17 8.27 11.96L8.27 11.96L8.27 11.96Q9.14 12.75 9.66 12.75L9.66 12.75L9.66 12.75Q10.18 12.76 11.29 11.73L11.29 11.73L11.29 11.73Q11.72 11.34 12.12 10.82L12.12 10.82L12.12 10.82Q12.51 10.31 12.62 9.74L12.62 9.74L12.62 9.74Q12.74 9.17 12.56 8.50L12.56 8.50L12.56 8.50Q12.39 7.83 11.58 7.04L11.58 7.04L11.58 7.04Q10.77 6.25 9.63 6.45L9.63 6.45ZM9.27 7.26L9.27 7.26L9.27 7.26Q10.06 7.08 10.99 8.24L10.99 8.24L10.99 8.24Q11.93 9.41 11.73 10.23L11.73 10.23L11.73 10.23Q11.53 11.06 10.88 11.56L10.88 11.56L10.88 11.56Q10.22 12.05 9.48 11.45L9.48 11.45L9.48 11.45Q8.74 10.84 8.31 10.15L8.31 10.15L8.31 10.15Q7.87 9.46 8.18 8.45L8.18 8.45L8.18 8.45Q8.48 7.43 9.27 7.26ZM14.46 3.53L13.51 4.05L13.51 4.05Q13.81 4.42 13.79 5.35L13.79 5.35L13.79 5.35Q13.61 11.53 13.72 12.01L13.72 12.01L13.72 12.01Q13.84 12.50 14.40 12.80L14.40 12.80L15.72 11.96L15.59 11.72L15.59 11.72Q15.09 12.04 14.84 11.35L14.84 11.35L14.84 11.35Q14.59 10.66 14.81 4.89L14.81 4.89L14.81 4.89Q14.78 3.89 14.46 3.53L14.46 3.53ZM18.84 6.45L18.84 6.45Q17.69 7.21 17.22 7.77L17.22 7.77L17.22 7.77Q16.74 8.33 16.55 8.89L16.55 8.89L16.55 8.89Q16.36 9.46 16.48 10.32L16.48 10.32L16.48 10.32Q16.61 11.17 17.48 11.96L17.48 11.96L17.48 11.96Q18.35 12.75 18.87 12.75L18.87 12.75L18.87 12.75Q19.39 12.76 20.50 11.73L20.50 11.73L20.50 11.73Q20.93 11.34 21.32 10.82L21.32 10.82L21.32 10.82Q21.72 10.31 21.83 9.74L21.83 9.74L21.83 9.74Q21.94 9.17 21.77 8.50L21.77 8.50L21.77 8.50Q21.59 7.83 20.79 7.04L20.79 7.04L20.79 7.04Q19.98 6.25 18.84 6.45L18.84 6.45ZM18.48 7.26L18.48 7.26L18.48 7.26Q19.26 7.08 20.20 8.24L20.20 8.24L20.20 8.24Q21.14 9.41 20.94 10.23L20.94 10.23L20.94 10.23Q20.74 11.06 20.08 11.56L20.08 11.56L20.08 11.56Q19.43 12.05 18.69 11.45L18.69 11.45L18.69 11.45Q17.95 10.84 17.51 10.15L17.51 10.15L17.51 10.15Q17.08 9.46 17.38 8.45L17.38 8.45L17.38 8.45Q17.69 7.43 18.48 7.26ZM27.66 7.75L27.69 8.42L27.69 8.42Q28.51 7.22 29.52 7.23L29.52 7.23L29.52 7.23Q30.53 7.23 30.42 8.74L30.42 8.74L30.42 8.74Q30.40 11.40 30.45 11.89L30.45 11.89L30.45 11.89Q30.50 12.39 31.08 12.74L31.08 12.74L32.18 11.93L32.11 11.77L32.11 11.77Q31.42 12.26 31.45 10.05L31.45 10.05L31.45 10.05Q31.49 7.83 31.36 7.37L31.36 7.37L31.36 7.37Q31.23 6.90 30.50 6.60L30.50 6.60L30.50 6.60Q29.78 6.29 29.14 6.64L29.14 6.64L29.14 6.64Q28.51 6.99 28.23 7.22L28.23 7.22L28.23 7.22Q27.95 7.44 27.66 7.75L27.66 7.75ZM23.65 6.55L22.35 7.42L22.43 7.57L22.43 7.57Q23.06 7.20 23.07 8.48L23.07 8.48L23.07 8.48Q23.00 11.45 23.09 11.91L23.09 11.91L23.09 11.91Q23.18 12.37 23.75 12.71L23.75 12.71L24.82 12.00L24.82 11.84L24.82 11.84Q24.25 11.92 24.17 11.07L24.17 11.07L24.17 11.07Q24.09 10.23 24.17 8.33L24.17 8.33L24.17 8.33Q24.89 7.22 25.90 7.23L25.90 7.23L25.90 7.23Q26.91 7.23 26.80 8.74L26.80 8.74L26.80 8.74Q26.78 11.40 26.82 11.89L26.82 11.89L26.82 11.89Q26.87 12.39 27.45 12.74L27.45 12.74L28.56 11.93L28.49 11.77L28.49 11.77Q27.79 12.26 27.83 10.05L27.83 10.05L27.83 10.05Q27.86 7.83 27.73 7.37L27.73 7.37L27.73 7.37Q27.60 6.90 26.88 6.60L26.88 6.60L26.88 6.60Q26.15 6.29 25.52 6.64L25.52 6.64L25.52 6.64Q24.88 6.99 24.60 7.22L24.60 7.22L24.60 7.22Q24.32 7.44 24.14 7.66L24.14 7.66L24.14 7.66Q24.20 6.81 23.65 6.55L23.65 6.55Z"></path></g><!----><!----></svg>